<svg fill="none" height="34" viewBox="0 0 32 34" width="32" xmlns="http://www.w3.org/2000/svg"><g stroke="#29193e" stroke-linecap="round" stroke-linejoin="round" stroke-width="1.42762"><path d="m30.9214 18.9484c0 8.022-7.011 14.0299-14.2803 14.0516-8.022 0-11.2146-4.7264-12.2525-6.3751s-3.0829-7.9819-3.0829-7.9819l27.112-9.58679s2.0144 4.25939 2.5037 9.89219z" fill="#972e8c"/><path d="m15.5252 30.0504c8.022 0 14.5252-6.5032 14.5252-14.5252 0-8.02205-6.5032-14.5252-14.5252-14.5252-8.02205 0-14.5252 6.50315-14.5252 14.5252 0 8.022 6.50315 14.5252 14.5252 14.5252z" fill="#972e8c"/><path d="m28.0391 23.0271.555 2.9255"/><path d="m26.1367 25.5635.5551 2.9255"/></g><path d="m19.4088 10.3455c-.6283-1.59681-2.204-1.74094-4.0388-1.38466l-.6535-2.27773-1.3862.39757.6364 2.21862c-.3643.1036-.7352.2186-1.1036.332l-.6397-2.23322-1.3854.39677.6518 2.27775c-.298.0923-.5911.183-.8785.2656l-.0025-.0081-1.9125.5481.4251 1.4818s1.0186-.3141 1.0065-.2899c.5619-.1611.838.1126.9716.379l.745 2.5943c.038-.0105.089-.0235.149-.0324l-.1466.0421 1.0421 3.6357c.0259.1838.0032.4955-.3887.6089.0219.0105-1.0089.2882-1.0089.2882l.2 1.7353 1.8041-.5183c.336-.0947.668-.1838.9927-.2753l.6615 2.3037 1.3846-.3968-.6534-2.2793c.3714-.0986.7417-.2012 1.1109-.3077l.6494 2.2696 1.3871-.3976-.6591-2.2996c2.2923-.8024 3.7554-1.8574 3.3303-4.1052-.3417-1.8089-1.3959-2.3579-2.8105-2.2964.6866-.6396.9822-1.5044.5198-2.672zm-.5263 5.4817c.4939 1.7223-2.5101 2.3717-3.4494 2.6421l-.8753-3.0526c.9393-.2696 3.8089-1.3846 4.3239.4113zm-1.8801-4.1214c.4485 1.5668-2.0624 2.089-2.8454 2.3133l-.7935-2.7684c.7822-.2243 3.17-1.1781 3.6389.4559z" fill="#fff"/></svg>